<?xml version="1.0" standalone="no"?>
<!DOCTYPE svg PUBLIC "-//W3C//DTD SVG 20010904//EN"
 "http://www.w3.org/TR/2001/REC-SVG-20010904/DTD/svg10.dtd">
<svg version="1.0" xmlns="http://www.w3.org/2000/svg"
 width="700.000000pt" height="700.000000pt" viewBox="0 0 700.000000 700.000000"
 preserveAspectRatio="xMidYMid meet">
<metadata>
Created by potrace 1.11, written by Peter Selinger 2001-2013
</metadata>
<g transform="translate(0.000000,700.000000) scale(0.100000,-0.100000)"
fill="#000000" stroke="none">
<path d="M3479 6903 c-3 -15 -6 -89 -13 -278 -4 -104 -9 -208 -11 -230 -2 -22
-7 -114 -10 -205 -3 -91 -8 -201 -10 -245 -3 -44 -7 -134 -9 -200 -9 -205 -18
-388 -21 -440 -2 -27 -4 -88 -4 -134 -1 -133 -12 -94 -26 89 -3 47 -8 101 -10
120 -5 44 -12 123 -20 220 -3 41 -8 95 -10 120 -2 25 -7 81 -11 125 -3 44 -11
83 -16 86 -6 4 -24 5 -42 3 -17 -2 -51 -6 -76 -8 -25 -2 -49 -5 -53 -5 -4 -1
-6 -18 -3 -38 3 -21 8 -72 11 -113 6 -77 11 -131 20 -235 5 -57 8 -83 20 -230
12 -146 17 -200 21 -207 2 -4 1 -9 -4 -12 -5 -3 -14 21 -20 52 -6 31 -13 66
-16 77 -2 11 -14 65 -26 120 -11 55 -25 116 -30 135 -5 19 -11 46 -13 60 -3
14 -33 151 -67 305 -34 154 -63 287 -65 295 -2 8 -11 48 -20 89 -8 41 -18 77
-20 79 -9 9 -175 -31 -175 -42 0 -6 10 -51 21 -101 11 -49 22 -101 25 -115 3
-14 30 -135 60 -270 30 -135 56 -254 58 -265 3 -11 12 -54 21 -95 9 -41 19
-86 22 -100 3 -14 6 -29 7 -35 2 -5 6 -28 10 -50 5 -22 17 -75 28 -119 10 -43
17 -80 15 -82 -3 -4 -17 32 -87 231 -38 108 -89 247 -208 575 -55 151 -157
433 -227 625 -70 193 -128 351 -129 352 -3 4 -141 -43 -159 -54 -11 -6 20
-102 160 -488 96 -264 203 -559 238 -655 35 -96 102 -281 148 -410 47 -129 84
-236 83 -237 -1 -2 -67 122 -146 275 -79 152 -155 300 -170 327 -21 39 -131
252 -135 262 -1 1 -38 -17 -83 -40 l-82 -43 33 -65 c19 -35 80 -154 137 -264
56 -110 126 -245 155 -300 89 -168 134 -261 115 -235 -20 26 -275 391 -618
885 -107 154 -198 284 -202 288 -4 5 -42 -15 -83 -44 l-76 -53 43 -60 c24 -34
179 -257 346 -496 167 -239 334 -478 371 -530 67 -96 84 -131 32 -70 -15 19
-47 53 -70 77 -23 25 -59 63 -79 86 -21 23 -80 89 -133 147 -53 57 -116 127
-141 155 -25 27 -73 79 -106 115 -34 36 -81 88 -105 117 -24 28 -49 54 -56 57
-6 3 -41 -23 -78 -57 l-65 -62 57 -60 c49 -52 117 -125 244 -266 13 -14 60
-65 103 -113 43 -47 88 -97 100 -109 116 -127 204 -224 219 -239 9 -10 13 -18
8 -18 -6 0 -12 4 -16 9 -3 6 -99 88 -213 183 -114 95 -209 175 -212 179 -3 3
-133 113 -290 244 -157 132 -287 242 -290 245 -21 23 -360 300 -366 299 -5 0
-34 -30 -63 -66 l-55 -66 40 -35 c21 -18 118 -100 214 -180 96 -81 180 -151
186 -157 6 -5 33 -28 60 -50 41 -34 207 -174 294 -248 21 -18 207 -174 465
-390 27 -23 66 -57 85 -75 39 -37 58 -49 -468 287 -178 113 -334 213 -347 221
-14 8 -90 57 -169 108 -79 50 -145 92 -148 92 -7 0 -101 -150 -97 -155 2 -1
101 -65 219 -140 118 -76 353 -226 522 -334 170 -108 316 -200 325 -206 31
-18 96 -65 90 -65 -3 0 -61 26 -129 58 -68 33 -148 71 -178 85 -31 14 -94 43
-140 65 -91 42 -182 85 -325 152 -49 23 -104 48 -122 56 l-31 13 -36 -76 c-20
-42 -35 -80 -34 -85 3 -8 155 -82 368 -180 228 -105 573 -271 545 -262 -53 16
-537 169 -710 224 -331 106 -473 150 -482 150 -13 0 -66 -162 -56 -170 7 -6
268 -91 338 -111 17 -4 100 -30 185 -58 85 -27 272 -86 415 -131 232 -74 319
-104 245 -87 -14 3 -78 15 -142 26 -65 12 -171 31 -235 42 -65 12 -127 23
-138 24 -11 2 -36 6 -55 10 -19 3 -73 13 -120 21 -142 25 -277 49 -355 64 -70
13 -101 19 -170 30 -33 5 -73 12 -90 15 -29 5 -73 12 -125 21 -14 3 -47 9 -75
14 -156 30 -145 30 -150 6 -8 -38 -25 -139 -25 -151 0 -7 19 -15 43 -19 23 -3
80 -13 127 -21 47 -9 108 -20 135 -25 98 -17 121 -21 205 -36 47 -9 92 -18
101 -19 9 -2 32 -6 50 -9 19 -3 162 -28 319 -56 307 -55 366 -65 420 -75 19
-3 62 -10 95 -16 33 -6 73 -13 89 -16 63 -10 70 -22 11 -18 -33 2 -127 7 -210
11 -82 3 -179 7 -215 9 -36 2 -139 6 -230 10 -91 4 -167 9 -170 10 -18 11 -28
-20 -32 -97 -4 -83 -3 -88 16 -89 12 0 55 -2 96 -4 41 -2 134 -6 205 -10 117
-5 188 -9 435 -20 41 -2 99 -4 129 -4 80 -1 59 -8 -47 -16 -52 -3 -101 -8
-110 -10 -10 -1 -57 -6 -107 -9 -49 -4 -110 -9 -135 -11 -47 -5 -116 -11 -235
-20 -38 -3 -90 -7 -115 -10 -25 -2 -79 -7 -120 -11 -41 -3 -91 -7 -110 -9 -61
-6 -173 -16 -225 -20 -130 -10 -194 -16 -235 -20 -25 -2 -81 -7 -125 -11 -44
-4 -87 -8 -95 -9 -16 -2 -17 -23 -9 -133 l4 -52 55 5 c82 7 179 16 235 20 28
2 75 6 105 9 30 3 84 8 120 11 36 3 90 7 120 10 128 12 159 15 230 20 41 3 91
7 110 10 19 2 73 7 120 10 47 4 101 8 120 10 19 2 71 6 115 10 44 4 96 8 115
10 19 2 73 6 120 10 47 4 93 9 103 11 9 1 17 -1 17 -7 0 -5 -8 -9 -17 -10 -10
0 -25 -2 -33 -4 -15 -4 -50 -12 -85 -19 -11 -2 -146 -32 -300 -66 -295 -66
-576 -127 -610 -134 -102 -21 -181 -40 -187 -45 -8 -7 20 -161 31 -173 3 -3
94 13 201 38 107 24 236 53 285 63 50 11 205 45 345 76 140 31 266 59 280 61
14 3 33 7 42 10 17 5 39 10 93 19 43 7 27 1 -265 -105 -140 -50 -365 -132
-500 -181 -135 -50 -250 -92 -257 -94 -9 -3 -5 -23 14 -72 14 -37 28 -76 30
-85 3 -10 7 -18 10 -18 5 0 460 164 513 185 19 7 125 46 235 86 110 39 228 82
263 94 34 13 62 22 62 20 0 -3 -32 -20 -71 -40 -85 -42 -477 -245 -734 -380
-60 -32 -193 -101 -295 -153 -102 -52 -212 -109 -245 -127 -33 -18 -150 -79
-260 -135 -110 -56 -204 -106 -208 -110 -13 -11 65 -160 83 -160 9 0 24 6 35
13 11 8 110 60 220 117 196 101 331 171 570 295 66 34 188 97 270 140 83 43
200 103 260 135 289 151 449 232 440 223 -8 -9 -241 -172 -505 -356 -30 -21
-89 -62 -130 -91 -41 -29 -203 -142 -360 -251 -157 -109 -293 -205 -303 -215
-18 -17 -18 -19 15 -62 18 -25 42 -57 53 -72 l20 -27 90 63 c50 35 119 84 155
109 36 25 236 165 445 311 645 450 664 462 614 416 -43 -40 -185 -170 -248
-227 -14 -13 -53 -49 -86 -80 -78 -72 -234 -214 -261 -238 -12 -10 -62 -56
-112 -101 l-91 -84 27 -27 c15 -15 43 -45 63 -67 l36 -41 44 40 c24 22 85 77
134 122 50 46 99 92 111 102 12 10 63 56 114 103 51 47 102 94 114 105 47 42
220 201 241 220 81 75 74 63 -41 -75 -482 -575 -498 -594 -507 -601 -4 -3 18
-28 50 -55 96 -82 85 -79 126 -26 20 26 46 58 59 72 13 14 43 50 69 80 113
137 471 560 474 560 2 0 -73 -118 -115 -180 -19 -28 -413 -645 -447 -700 -19
-30 -61 -97 -94 -148 -32 -51 -59 -95 -59 -96 0 -11 153 -97 159 -90 4 5 57
88 118 184 61 96 173 272 248 390 76 118 181 283 233 365 52 83 98 154 103
160 9 9 -79 -183 -205 -449 -31 -65 -56 -119 -56 -121 0 -1 -29 -63 -64 -136
-35 -74 -91 -195 -126 -269 -34 -74 -89 -191 -121 -259 -33 -68 -59 -124 -59
-126 0 -1 -26 -58 -59 -126 -32 -68 -68 -146 -81 -174 -12 -27 -33 -71 -46
-97 l-24 -48 47 -24 c27 -13 65 -31 86 -39 l37 -16 14 32 c8 18 36 79 64 137
27 58 61 130 75 160 14 30 46 100 72 155 26 55 75 161 110 235 34 74 86 185
115 245 69 145 111 236 175 375 29 63 77 167 107 230 30 63 68 143 83 177 31
68 45 79 21 17 -8 -22 -40 -120 -71 -219 -31 -99 -83 -263 -115 -365 -119
-375 -160 -506 -160 -513 0 -6 152 -57 171 -57 5 0 9 5 9 11 0 11 56 192 160
514 67 208 133 418 136 430 7 30 63 186 59 164 -3 -14 -16 -91 -30 -170 -14
-79 -27 -155 -30 -169 -3 -14 -7 -38 -10 -55 -3 -16 -16 -93 -30 -170 -13 -77
-27 -152 -29 -168 -3 -15 -10 -53 -16 -85 -5 -31 -12 -68 -15 -82 -2 -14 -20
-117 -40 -229 -19 -112 -37 -207 -40 -211 -5 -8 51 -23 138 -35 36 -6 47 -4
48 6 0 8 2 21 4 29 6 31 25 137 31 175 3 22 10 59 15 83 5 23 12 59 14 80 3
20 8 48 11 62 5 29 2 12 54 305 60 337 79 442 92 518 6 37 15 67 20 67 5 0 7
-8 4 -17 -3 -10 -8 -81 -11 -158 -4 -126 -8 -206 -20 -460 -2 -44 -6 -145 -10
-225 -3 -80 -8 -176 -10 -215 -2 -38 -7 -142 -11 -230 -3 -88 -7 -189 -9 -225
-2 -36 -6 -137 -10 -225 -4 -88 -8 -178 -10 -201 -2 -23 0 -46 4 -52 6 -10
166 -20 176 -11 3 4 8 98 20 379 8 190 16 372 20 450 3 47 7 141 10 210 9 217
16 373 20 445 2 39 7 147 11 240 4 94 8 186 9 205 2 19 3 53 4 74 2 64 8 37
16 -64 4 -52 8 -111 10 -130 3 -32 10 -111 20 -230 2 -25 6 -72 9 -105 3 -33
8 -91 11 -130 5 -66 8 -102 20 -235 3 -30 8 -86 11 -125 3 -38 8 -73 10 -77 4
-6 44 -4 142 8 39 5 42 7 38 32 -3 15 -8 63 -11 107 -3 44 -8 96 -10 115 -2
19 -7 73 -10 120 -3 47 -8 101 -10 120 -2 19 -7 71 -10 115 -4 44 -8 96 -10
115 -2 19 -7 75 -10 125 -4 49 -8 96 -10 105 -1 8 -5 56 -8 105 -6 87 -4 86
17 -13 3 -13 8 -32 11 -42 3 -10 8 -29 10 -42 10 -51 18 -87 36 -168 10 -47
26 -114 33 -150 77 -345 117 -528 120 -545 3 -11 19 -83 36 -160 17 -77 33
-149 36 -160 5 -27 42 -194 61 -280 9 -38 19 -73 22 -77 3 -4 35 0 71 8 36 8
74 16 86 19 21 5 21 5 -7 127 -16 68 -31 137 -34 153 -6 29 -134 613 -255
1159 -33 148 -60 274 -59 280 0 6 32 -77 70 -184 38 -107 74 -204 79 -215 5
-11 93 -252 195 -535 102 -283 188 -516 190 -518 3 -4 139 43 160 56 9 5 2 36
-30 122 -24 63 -129 354 -235 645 -105 292 -207 570 -226 620 -54 140 -32 105
133 -215 44 -85 115 -222 158 -305 43 -82 99 -190 125 -240 26 -49 91 -175
145 -280 54 -104 117 -226 140 -270 23 -44 93 -178 154 -297 62 -120 116 -220
120 -222 7 -5 138 58 154 74 5 4 -14 50 -41 101 -46 88 -93 179 -272 524 -40
77 -98 190 -130 250 -31 61 -97 187 -145 280 -48 94 -109 211 -135 260 -26 50
-94 180 -150 290 -56 110 -107 204 -111 210 -5 5 -9 13 -9 19 0 5 20 -19 45
-55 24 -35 54 -77 65 -94 12 -16 58 -83 103 -147 45 -64 120 -171 167 -238 47
-67 92 -131 100 -144 102 -150 144 -204 155 -198 59 36 135 98 132 107 -3 6
-91 134 -197 285 -106 151 -221 317 -257 368 -35 51 -86 125 -114 165 l-51 72
49 -51 c26 -28 84 -90 128 -139 44 -48 91 -100 105 -115 28 -30 180 -196 251
-275 96 -105 304 -332 348 -380 26 -27 87 -95 136 -150 50 -54 110 -121 135
-147 l45 -47 66 63 67 62 -35 40 c-28 31 -137 149 -228 248 -33 35 -317 348
-355 390 -25 27 -56 62 -70 76 -14 15 -59 64 -100 109 -41 46 -91 100 -110
121 -31 33 -180 196 -205 225 -5 6 -28 31 -50 55 l-40 44 55 -45 c30 -24 117
-97 195 -163 77 -65 154 -130 171 -145 87 -73 136 -114 338 -284 l220 -184 50
61 c27 34 55 64 60 68 13 9 12 10 -129 128 -60 50 -132 111 -159 133 -27 23
-63 53 -79 67 -200 166 -566 476 -582 493 l-20 21 20 -16 c11 -9 126 -83 255
-165 129 -82 335 -213 457 -291 122 -78 226 -142 231 -142 6 0 24 24 42 52 17
29 37 63 46 74 15 21 5 28 -451 319 -256 164 -464 299 -462 302 2 2 17 -3 33
-12 33 -17 324 -155 328 -155 2 0 59 -26 127 -59 68 -32 149 -70 179 -84 30
-14 102 -47 160 -75 58 -27 166 -77 240 -112 74 -34 191 -89 258 -121 68 -33
126 -59 129 -59 6 0 73 145 73 158 0 5 -19 19 -42 30 -24 11 -158 74 -298 140
-140 66 -289 135 -330 155 -163 75 -541 252 -646 302 -61 29 -121 56 -133 60
-12 4 -21 9 -19 11 3 2 38 -7 79 -20 41 -13 155 -49 254 -80 99 -31 198 -63
220 -71 22 -7 101 -32 175 -55 74 -23 189 -59 255 -80 66 -21 212 -68 325
-104 113 -35 277 -87 364 -115 88 -28 161 -50 162 -48 2 3 54 167 54 172 0 2
-14 7 -32 10 -18 4 -39 11 -48 16 -8 5 -37 15 -65 23 -61 17 -765 240 -1350
427 -137 44 -270 86 -295 94 -66 20 -35 18 82 -5 57 -12 119 -23 138 -26 34
-5 170 -29 220 -38 34 -7 170 -31 375 -66 94 -17 202 -36 241 -44 l72 -13 16
90 c9 49 16 91 14 92 -2 2 -19 5 -38 8 -19 3 -46 8 -60 11 -14 3 -65 12 -115
20 -49 9 -101 18 -115 21 -14 3 -65 12 -115 21 -49 8 -101 17 -115 20 -28 5
-226 40 -280 50 -19 3 -39 7 -45 8 -5 2 -32 7 -60 11 -27 5 -52 10 -55 10 -3
1 -29 5 -57 10 -63 9 -70 22 -10 19 23 -2 107 -5 187 -9 80 -3 183 -8 228 -10
46 -3 147 -7 225 -10 78 -3 178 -7 222 -10 78 -5 153 -8 435 -21 74 -3 156 -7
183 -9 38 -2 47 1 48 14 0 9 2 51 5 94 l6 77 -39 1 c-21 0 -60 2 -88 4 -27 1
-122 6 -210 9 -88 4 -189 9 -225 11 -36 2 -126 6 -200 9 -190 9 -297 14 -435
22 -171 9 -270 13 -349 13 -38 1 -67 3 -65 5 4 5 37 8 189 21 36 3 81 7 100
10 19 2 71 7 115 10 96 7 171 13 245 20 58 6 101 9 239 20 47 4 92 8 101 10 8
2 61 6 117 10 152 10 139 2 135 79 -2 36 -5 74 -7 84 -2 9 -4 21 -4 25 -1 5
-27 6 -58 3 -32 -3 -87 -8 -123 -11 -36 -3 -85 -8 -110 -10 -103 -9 -169 -15
-235 -20 -65 -5 -127 -10 -230 -20 -22 -2 -83 -7 -135 -10 -52 -4 -104 -9
-115 -11 -10 -2 -62 -6 -115 -10 -52 -3 -98 -8 -102 -11 -5 -2 -8 0 -8 5 0 5
21 13 48 17 26 5 52 9 57 11 30 7 204 46 225 50 14 3 122 27 240 54 118 26
241 53 272 60 60 12 61 14 43 70 -3 10 -8 29 -10 42 -11 58 -17 78 -23 78 -8
0 -263 -56 -367 -80 -44 -10 -91 -21 -105 -24 -14 -3 -34 -7 -45 -9 -11 -3
-54 -12 -95 -21 -41 -8 -124 -27 -184 -40 -61 -14 -111 -24 -113 -22 -2 1 50
22 114 45 65 23 141 51 168 61 28 11 232 85 455 165 223 80 452 164 510 185
58 21 220 80 360 131 140 50 256 92 257 93 1 1 -12 41 -30 88 l-32 86 -260
-94 c-143 -52 -307 -112 -365 -133 -58 -21 -251 -92 -430 -156 -179 -65 -365
-132 -415 -150 -49 -18 -130 -47 -180 -65 -49 -17 -99 -35 -110 -40 -54 -22
-108 -40 -111 -38 -2 2 34 23 79 46 45 23 152 78 237 123 85 44 232 120 325
168 94 49 217 113 275 143 58 30 177 92 265 138 88 45 165 87 171 91 8 6 -2
33 -30 88 l-41 80 -195 -101 c-107 -55 -265 -137 -350 -181 -85 -44 -204 -105
-265 -137 -60 -32 -182 -95 -270 -140 -88 -45 -193 -100 -232 -122 -40 -22
-73 -38 -73 -36 0 2 60 46 133 97 72 51 290 203 482 337 193 135 350 250 349
257 -1 7 -22 42 -48 80 l-48 67 -46 -33 c-57 -41 -261 -184 -612 -429 -246
-172 -349 -241 -308 -206 10 8 56 50 104 94 47 43 96 88 108 99 12 11 69 63
126 115 57 52 129 118 159 145 30 28 82 75 115 106 93 85 158 145 186 169 14
12 48 43 75 68 28 26 76 71 107 100 l57 52 -52 56 c-29 31 -53 60 -55 65 -7
19 -29 7 -82 -44 -31 -28 -103 -95 -160 -147 -58 -52 -107 -97 -110 -100 -3
-3 -57 -52 -120 -110 -63 -58 -117 -107 -120 -110 -3 -3 -79 -73 -170 -155
-90 -83 -171 -157 -180 -165 -9 -8 -40 -37 -68 -63 -54 -50 -70 -55 -28 -9 14
15 77 90 142 167 64 77 136 163 159 190 205 240 384 460 378 465 -5 3 -36 30
-71 59 -34 30 -64 52 -65 50 -4 -6 -121 -143 -127 -149 -3 -3 -39 -45 -80 -95
-165 -198 -353 -421 -373 -445 -12 -14 -44 -52 -71 -85 -96 -117 -101 -126
122 225 44 69 177 278 297 465 514 803 497 775 478 775 -6 0 -38 18 -72 40
-34 22 -66 40 -70 40 -5 0 -41 -51 -81 -112 -222 -349 -306 -482 -359 -563
-32 -49 -163 -254 -291 -455 -210 -331 -272 -424 -242 -365 5 11 42 90 82 175
40 85 89 191 110 235 86 184 114 244 145 310 18 39 52 111 75 160 23 50 75
160 115 245 40 85 87 187 106 225 18 39 37 78 41 88 6 15 -6 24 -75 57 l-82
40 -40 -83 c-44 -90 -94 -196 -213 -452 -44 -93 -94 -201 -112 -240 -18 -38
-56 -119 -84 -180 -29 -60 -92 -196 -141 -302 -49 -106 -91 -190 -93 -188 -4
3 48 171 227 735 50 157 91 290 91 297 0 12 -159 67 -169 58 -3 -3 -19 -52
-37 -108 -18 -56 -49 -154 -69 -217 -38 -121 -51 -160 -162 -512 -37 -119 -69
-215 -70 -214 -3 2 11 87 31 201 2 11 7 38 11 60 3 22 11 63 16 90 28 156 39
214 43 245 7 43 13 79 26 145 5 28 12 68 16 90 3 22 9 58 14 80 5 22 12 56 15
75 3 19 14 85 25 146 11 61 22 129 26 150 3 21 8 42 11 47 7 12 -32 21 -133
33 l-50 6 -13 -74 c-8 -40 -15 -84 -18 -98 -4 -25 -40 -229 -47 -265 -2 -11
-7 -40 -11 -65 -4 -25 -9 -54 -11 -65 -7 -36 -26 -139 -30 -165 -3 -14 -7 -32
-9 -40 -2 -8 -7 -37 -11 -65 -3 -27 -8 -53 -10 -56 -1 -3 -6 -28 -10 -55 -3
-27 -8 -51 -9 -54 -2 -3 -6 -26 -10 -50 -6 -44 -19 -123 -31 -185 -20 -105
-22 -106 -18 -5 8 221 28 667 39 895 2 50 7 158 11 240 3 83 7 182 9 220 2 39
7 140 10 225 l7 155 -91 3 c-50 1 -92 -1 -92 -5z m231 -1927 c164 -15 297 -61
399 -138 134 -101 290 -238 342 -299 130 -154 262 -415 332 -659 34 -115 39
-148 42 -270 7 -241 -73 -512 -219 -745 -76 -120 -154 -224 -213 -283 -97 -96
-317 -223 -481 -277 -45 -15 -85 -31 -88 -36 -3 -5 -9 -7 -14 -4 -4 3 -39 -2
-77 -10 -50 -11 -109 -13 -223 -10 -85 3 -167 7 -182 9 -16 2 -47 7 -70 11
-196 29 -461 106 -577 167 -85 45 -320 278 -447 443 -74 96 -144 270 -159 395
-3 25 -9 70 -14 100 -14 82 -6 371 13 480 21 123 109 429 144 500 62 127 368
383 612 513 110 58 129 64 285 88 39 6 81 12 95 15 14 2 66 7 115 10 50 4 91
7 92 8 6 5 218 -2 293 -8z m1193 -1513 c-7 -2 -19 -2 -25 0 -7 3 -2 5 12 5 14
0 19 -2 13 -5z"/>
</g>
</svg>
