<?xml version="1.0" encoding="UTF-8" standalone="no"?>
<!DOCTYPE svg PUBLIC "-//W3C//DTD SVG 1.1//EN" "http://www.w3.org/Graphics/SVG/1.1/DTD/svg11.dtd">
<svg width="510pt" height="510pt" viewBox="0 0 510 510" overflow="visible" version="1.1" xmlns="http://www.w3.org/2000/svg">
  <path d="M277.9773,344.5969 L306.4207,473.6939 L293.3065,476.5833 L264.8451,347.4045 L272.2699,433.5654 L258.8908,434.7184 L251.466,348.5575 L244.6176,500.8509 L231.2024,500.2477 L238.0508,347.9542 L219.8283,450.5163 L206.6067,448.1672 L224.8292,345.6051 L197.5704,431.6673 L184.7685,427.6125 L212.0273,341.5503 L149.2204,475.7826 L137.0573,470.0916 L199.8642,335.8592 L146.6028,419.2226 L135.2866,411.9926 L188.548,328.6292 L140.8324,385.3439 L130.5567,376.6987 L178.2723,319.984 L115.6694,377.1989 L106.61,367.2864 L169.2129,310.0715 L69.45809,379.7267 L61.77007,368.7166 L161.5249,299.0613 L26.32654,369.217 L20.14141,357.2975 L155.1945,287.2172 C156.8895,291.4119 159.0231,295.3694 161.6832,299.1584 C166.7077,306.3152 173.6104,312.8713 178.9927,318.619 C184.375,324.3667 188.2368,329.306 196.2885,333.4876 L200.1284,335.2946 L200.2042,335.3271 L212.6349,339.6321 L212.8907,339.705 L225.335,342.7584 L225.706,342.8368 L229.28,343.5591 L238.1782,345.1047 L238.5475,345.1604 C248.2291,346.6115 257.8276,347.3046 266.2609,346.5897 z" stroke="#000000" stroke-width="0" fill="#000000" fill-opacity="1.0" />
  <path d="M277.9879,344.5942 L277.9773,344.5969 L277.9593,344.5152 z" stroke="#000000" stroke-width="0" fill="#000000" fill-opacity="1.0" />
  <path d="M290.6754,340.1906 L330.5963,450.3194 L317.9715,454.8958 L277.9879,344.5942 z" stroke="#000000" stroke-width="0" fill="#000000" fill-opacity="1.0" />
  <path d="M290.7076,340.1768 L290.6754,340.1906 L290.5841,339.9388 z" stroke="#000000" stroke-width="0" fill="#000000" fill-opacity="1.0" />
  <path d="M302.7846,334.2952 L376.894,477.1129 L364.9746,483.298 L290.7076,340.1768 L294.985,338.245 z" stroke="#000000" stroke-width="0" fill="#000000" fill-opacity="1.0" />
  <path d="M302.8549,334.2568 L302.7846,334.2952 L302.5035,333.7536 z" stroke="#000000" stroke-width="0" fill="#000000" fill-opacity="1.0" />
  <path d="M314.2533,327.1248 L360.2767,393.0359 L349.2665,400.7239 L302.8549,334.2568 z" stroke="#000000" stroke-width="0" fill="#000000" fill-opacity="1.0" />
  <path d="M314.3899,327.0243 L314.2533,327.1248 L313.667,326.2569 z" stroke="#000000" stroke-width="0" fill="#000000" fill-opacity="1.0" />
  <path d="M324.1502,317.7984 L411.537,413.4145 L401.6245,422.4739 L314.3899,327.0243 L316.9882,325.0035 z" stroke="#000000" stroke-width="0" fill="#000000" fill-opacity="1.0" />
  <path d="M324.2389,317.6899 L324.1502,317.7984 L323.4262,317.0062 z" stroke="#000000" stroke-width="0" fill="#000000" fill-opacity="1.0" />
  <path d="M332.1034,306.7574 L404.4817,367.6511 L395.8365,377.9268 L324.2389,317.6899 L330.3443,309.3312 z" stroke="#000000" stroke-width="0" fill="#000000" fill-opacity="1.0" />
  <path d="M332.1065,306.7529 L332.1034,306.7574 L332.0714,306.7305 z" stroke="#000000" stroke-width="0" fill="#000000" fill-opacity="1.0" />
  <path d="M349.0031,270.4353 L485.3008,313.6054 L481.2459,326.4073 L344.9926,283.2512 L455.1932,334.8138 L449.5021,346.9769 L339.3015,295.4143 L410.8833,341.1484 L403.6533,352.4646 L332.1065,306.7529 C336.1966,300.7077 340.9147,293.1963 344.6911,283.775 z" stroke="#000000" stroke-width="0" fill="#000000" fill-opacity="1.0" />
  <path d="M155.1865,287.1974 L74.69713,316.3742 L70.12071,303.7494 L150.7634,274.517 L54.45881,295.7354 L51.56942,282.6212 L147.874,261.4028 L19.33859,272.4792 L18.18566,259.1001 L146.721,248.0237 L76.10912,244.8484 L76.71237,231.4333 L147.3243,234.6086 L22.30873,212.3967 L24.65785,199.1751 L149.6734,221.387 L58.15372,192.3996 L62.20852,179.5977 L153.7282,208.5851 L82.67635,175.3401 L88.36743,163.177 L159.4193,196.422 L71.16271,140.0343 L78.39272,128.718 L166.6493,185.1057 L63.09707,97.98457 L71.74229,87.70887 L175.2945,174.83 L119.513,113.7955 L129.4255,104.7361 L185.207,165.7707 L122.5689,76.06524 L133.5791,68.37721 L196.2172,158.0827 L161.7095,91.58227 L173.629,85.39714 L208.1367,151.8975 L159.7043,18.28828 L172.3291,13.71187 L220.7615,147.3211 L200.1119,53.59816 L213.2261,50.70877 L233.8757,144.4317 L228.2008,78.57796 L241.5799,77.42503 L247.2548,143.2788 L253.4066,6.475756 L266.8217,7.079013 L260.693,143.3699 L278.6712,42.56524 L291.8928,44.91436 L273.9251,146.042 L299.4821,65.43616 L312.284,69.49096 L286.696,150.3015 L338.256,40.08533 L350.4191,45.77642 L298.8263,156.0418 L371.3711,42.4792 L382.6873,49.70921 L310.1728,163.2071 L364.1748,99.02024 L374.4505,107.6655 L320.4485,171.8523 L398.8474,100.2009 L407.9067,110.1134 L329.5078,181.7648 L402.8476,130.5542 L410.5356,141.5644 L337.1959,192.775 L440.3959,139.2234 L446.5811,151.1429 L343.381,204.6944 L483.4741,153.9117 L488.0505,166.5365 L347.9574,217.3193 L418.7821,201.7147 L421.6715,214.8289 L351.3077,230.3319 L446.0467,222.2297 L447.1996,235.6088 L353.6655,243.669 L473.544,249.2782 L472.9407,262.6933 L352.3295,257.2696 L439.4081,272.865 L437.059,286.0866 L349.0016,270.4412 C350.8932,262.8893 351.9968,254.8743 351.803,247.1924 C351.4889,234.7434 347.7678,223.1692 343.2321,212.1087 C338.6965,201.0482 333.3465,190.5014 326.6899,182.1326 C320.0333,173.7638 312.0702,167.5729 305.6178,162.4023 C299.1654,157.2316 294.2238,153.0812 285.8084,150.3997 C277.393,147.7181 265.504,146.5055 253.4974,146.7606 C241.4908,147.0157 229.3668,148.7385 222.4462,149.9151 L221.7454,150.0354 L221.3739,150.1004 C215.3338,151.1637 213.5838,151.8344 209.6344,153.811 C205.4606,155.9 198.8302,159.4476 190.4044,165.3923 L176.5208,176.1702 L166.9383,185.2904 L166.9083,185.3237 L166.2072,186.1201 C162.7379,190.1463 161.0939,193.4298 159.951,196.6707 L159.9249,196.745 L158.1494,202.6074 L156.0421,209.318 L155.9451,209.6224 L152.4849,221.8865 L152.4326,222.1159 L152.402,222.2512 L150.3215,234.7434 L150.2777,235.1333 L149.4541,247.4724 L149.4465,247.7889 L149.4386,248.1459 L149.726,260.9933 L149.7433,261.2416 L151.6532,275.4213 z" stroke="#000000" stroke-width="0" fill="#000000" fill-opacity="1.0" />
  <path d="M155.1945,287.2172 L155.1865,287.1974 L155.3398,287.1418 z" stroke="#000000" stroke-width="0" fill="#000000" fill-opacity="1.0" />
</svg>